<svg width="24" height="24" viewBox="0 0 24 24" fill="currentColor" xmlns="http://www.w3.org/2000/svg">
    <path d="M3.32963 9.74989L11.2046 1.87489C11.4156 1.66398 11.7017 1.5455 12 1.5455C12.2983 1.5455 12.5844 1.66398 12.7954 1.87489L20.6704 9.74989C20.8814 9.96082 20.9999 10.2469 21 10.5453V21.3295C21 21.6279 20.8815 21.914 20.6705 22.125C20.4595 22.336 20.1734 22.4545 19.875 22.4545H14.25V14.5795H9.75V22.4545H4.125C3.82663 22.4545 3.54048 22.336 3.32951 22.125C3.11853 21.914 3 21.6279 3 21.3295V10.5453C3.00006 10.2469 3.11863 9.96082 3.32963 9.74989Z"/>
</svg>
