<svg width="18" height="18" viewBox="0 0 18 18" fill="currentColor" xmlns="http://www.w3.org/2000/svg">
    <path d="M15.7083 7.83333H10.1667V2.29167C10.1667 2.13125 10.0354 2 9.875 2H8.125C7.96458 2 7.83333 2.13125 7.83333 2.29167V7.83333H2.29167C2.13125 7.83333 2 7.96458 2 8.125V9.875C2 10.0354 2.13125 10.1667 2.29167 10.1667H7.83333V15.7083C7.83333 15.8687 7.96458 16 8.125 16H9.875C10.0354 16 10.1667 15.8687 10.1667 15.7083V10.1667H15.7083C15.8687 10.1667 16 10.0354 16 9.875V8.125C16 7.96458 15.8687 7.83333 15.7083 7.83333Z"/>
</svg>
