<svg width="21" height="21" viewBox="-1 -1 19 19" fill="currentColor" xmlns="http://www.w3.org/2000/svg">
    <path d="M2.25 4.44884e-05C1.01625 4.44884e-05 0 1.01629 0 2.25004V15.75C0 16.9925 1.0075 18 2.25 18H15.75C16.9925 18 18 16.9925 18 15.75V5.25004C18 4.00754 16.9925 3.00004 15.75 3.00004H2.25C1.836 3.00004 1.5 2.66404 1.5 2.25004C1.5 1.82679 1.82675 1.50004 2.25 1.50004H14.75C14.8494 1.50145 14.9481 1.48309 15.0403 1.44603C15.1325 1.40897 15.2164 1.35395 15.2872 1.28416C15.358 1.21438 15.4142 1.13123 15.4526 1.03953C15.4909 0.947841 15.5107 0.849438 15.5107 0.750044C15.5107 0.650651 15.4909 0.552248 15.4526 0.460555C15.4142 0.368862 15.358 0.285708 15.2872 0.215924C15.2164 0.146141 15.1325 0.0911204 15.0403 0.0540601C14.9481 0.0169998 14.8494 -0.00136105 14.75 4.44884e-05H2.25ZM13.75 9.00004C14.4405 9.00004 15 9.55954 15 10.25C15 10.9405 14.4405 11.5 13.75 11.5C13.0595 11.5 12.5 10.9405 12.5 10.25C12.5 9.55954 13.0595 9.00004 13.75 9.00004Z"/>
</svg>
